# xmcd CD database file
#
# Track frame offsets:
#	183
#	28353
#	96333
#	117965
#	166533
#	220083
#	256208
#
# Disc length: 3707 seconds
#
# Revision: 0
# Processed by: cddbd v1.5.2PL0 Copyright (c) Steve Scherf et al.
# Submitted via: CDex 1.51
#
DISCID=580e7907
DTITLE=Guido Mazzon - Il profumo della libertà
DYEAR=1992
DGENRE=Jazz
TTITLE0=Il profumo della libertà
TTITLE1=Il vecchio sognava i leoni
TTITLE2=Ad libitum
TTITLE3=Old tales and new songs
TTITLE4=Appunti per un autoritratto
TTITLE5=Michele, non temere: verranno tempi migliori
TTITLE6=Lullaby for Duccio
EXTD=YEAR: 1992
EXTT0=
EXTT1=
EXTT2=
EXTT3=
EXTT4=
EXTT5=
EXTT6=
PLAYORDER=
